<?xml version="1.0" standalone="no"?>
<!DOCTYPE svg PUBLIC "-//W3C//DTD SVG 20010904//EN"
 "http://www.w3.org/TR/2001/REC-SVG-20010904/DTD/svg10.dtd">
<svg version="1.0" xmlns="http://www.w3.org/2000/svg"
 width="512.000000pt" height="512.000000pt" viewBox="0 0 512.000000 512.000000"
 preserveAspectRatio="xMidYMid meet">
<metadata>
Created by potrace 1.14, written by Peter Selinger 2001-2017
</metadata>
<g transform="translate(0.000000,512.000000) scale(0.100000,-0.100000)"
fill="#000000" stroke="none">
<path d="M4330 5110 c-89 -12 -154 -21 -170 -24 -270 -50 -532 -150 -755 -286
-80 -49 -185 -119 -201 -134 -6 -6 -29 -24 -50 -41 -21 -16 -175 -164 -340
-328 -232 -229 -306 -298 -320 -293 -11 3 -30 7 -44 10 -14 2 -175 34 -357 70
-301 60 -342 66 -425 62 -51 -3 -120 -12 -153 -21 -77 -20 -195 -76 -255 -120
-26 -19 -178 -165 -338 -325 -311 -311 -322 -326 -308 -404 17 -89 129 -145
210 -105 11 6 74 63 138 127 l117 115 337 -337 338 -337 -80 -242 c-45 -133
-85 -243 -90 -244 -21 -4 -561 -187 -579 -196 -63 -32 -95 -128 -64 -190 6
-12 95 -107 198 -211 122 -124 170 -178 140 -158 -152 101 -354 148 -530 122
-287 -42 -519 -216 -610 -459 -24 -66 -67 -212 -74 -255 -3 -17 -8 -38 -10
-46 -6 -21 -13 -66 -21 -135 -3 -33 -8 -62 -9 -65 -9 -14 -19 -225 -20 -380 0
-165 1 -177 23 -211 41 -67 66 -73 311 -66 119 4 230 9 246 11 17 3 71 10 120
16 201 24 407 79 530 142 84 43 151 98 217 180 209 260 234 619 63 903 -33 54
-21 44 137 -115 95 -95 186 -181 203 -192 67 -40 169 -10 204 61 10 20 59 160
110 311 l91 275 233 78 c129 42 236 77 240 77 3 0 157 -151 343 -335 l337
-336 -120 -122 c-66 -67 -124 -133 -128 -147 -28 -87 25 -180 112 -196 76 -14
91 -3 406 313 163 164 313 322 333 352 128 190 157 383 101 656 -32 152 -32
154 -53 265 -9 47 -18 94 -20 105 -2 11 -12 64 -21 118 l-17 98 280 282 c388
390 466 489 597 752 118 238 178 428 217 688 32 218 14 660 -31 760 -18 40
-82 73 -166 86 -43 7 -89 15 -103 17 -41 9 -410 11 -470 4z"/>
<path d="M268 3015 c-41 -23 -246 -235 -256 -264 -23 -67 3 -142 63 -176 47
-28 91 -32 138 -11 43 19 243 222 260 266 24 59 2 136 -50 174 -35 26 -119 32
-155 11z"/>
<path d="M2841 482 c-28 -4 -255 -221 -277 -264 -19 -38 -17 -97 5 -138 33
-63 120 -94 186 -65 37 16 246 224 262 262 28 64 1 152 -55 185 -29 17 -83 26
-121 20z"/>
</g>
</svg>
